<?xml version="1.0" encoding="utf-8" standalone="no"?>
<!DOCTYPE svg PUBLIC "-//W3C//DTD SVG 1.1//EN"
        "http://www.w3.org/Graphics/SVG/1.1/DTD/svg11.dtd">
<svg xmlns:xlink="http://www.w3.org/1999/xlink" width="720pt" height="432pt" viewBox="0 0 720 432"
     xmlns="http://www.w3.org/2000/svg" version="1.1">
    <metadata>
        <rdf:RDF xmlns:dc="http://purl.org/dc/elements/1.1/" xmlns:cc="http://creativecommons.org/ns#"
                 xmlns:rdf="http://www.w3.org/1999/02/22-rdf-syntax-ns#">
            <cc:Work>
                <dc:type rdf:resource="http://purl.org/dc/dcmitype/StillImage"/>
                <dc:date>2023-09-01T18:34:01.131872</dc:date>
                <dc:format>image/svg+xml</dc:format>
                <dc:creator>
                    <cc:Agent>
                        <dc:title>Matplotlib v3.7.1, https://matplotlib.org/</dc:title>
                    </cc:Agent>
                </dc:creator>
            </cc:Work>
        </rdf:RDF>
    </metadata>
    <defs>
        <style type="text/css">*{stroke-linejoin: round; stroke-linecap: butt}</style>
    </defs>
    <g id="figure_1">
        <g id="patch_1">
            <path d="M 0 432
L 720 432 
L 720 0 
L 0 0 
z
" style="fill: #ffffff"/>
        </g>
        <g id="axes_1">
            <g id="patch_2">
                <path d="M 41.48925 393.21075
L 709.632 393.21075 
L 709.632 23.12925 
L 41.48925 23.12925 
z
" style="fill: #ffffff"/>
            </g>
            <g id="matplotlib.axis_1">
                <g id="xtick_1">
                    <g id="line2d_1">
                        <path d="M 139.348542 393.21075
L 139.348542 23.12925 
" clip-path="url(#pd5fb6198a5)" style="fill: none; stroke: #cccccc; stroke-width: 0.8; stroke-linecap: round"/>
                    </g>
                    <g id="text_1">
                        <!-- 20 -->
                        <g style="fill: #262626" transform="translate(134.454917 407.809625) scale(0.088 -0.088)">
                            <defs>
                                <path id="ArialMT-32" d="M 3222 541
L 3222 0 
L 194 0 
Q 188 203 259 391 
Q 375 700 629 1000 
Q 884 1300 1366 1694 
Q 2113 2306 2375 2664 
Q 2638 3022 2638 3341 
Q 2638 3675 2398 3904 
Q 2159 4134 1775 4134 
Q 1369 4134 1125 3890 
Q 881 3647 878 3216 
L 300 3275 
Q 359 3922 746 4261 
Q 1134 4600 1788 4600 
Q 2447 4600 2831 4234 
Q 3216 3869 3216 3328 
Q 3216 3053 3103 2787 
Q 2991 2522 2730 2228 
Q 2469 1934 1863 1422 
Q 1356 997 1212 845 
Q 1069 694 975 541 
L 3222 541 
z
" transform="scale(0.015625)"/>
                                <path id="ArialMT-30" d="M 266 2259
Q 266 3072 433 3567 
Q 600 4063 929 4331 
Q 1259 4600 1759 4600 
Q 2128 4600 2406 4451 
Q 2684 4303 2865 4023 
Q 3047 3744 3150 3342 
Q 3253 2941 3253 2259 
Q 3253 1453 3087 958 
Q 2922 463 2592 192 
Q 2263 -78 1759 -78 
Q 1097 -78 719 397 
Q 266 969 266 2259 
z
M 844 2259 
Q 844 1131 1108 757 
Q 1372 384 1759 384 
Q 2147 384 2411 759 
Q 2675 1134 2675 2259 
Q 2675 3391 2411 3762 
Q 2147 4134 1753 4134 
Q 1366 4134 1134 3806 
Q 844 3388 844 2259 
z
" transform="scale(0.015625)"/>
                            </defs>
                            <use xlink:href="#ArialMT-32"/>
                            <use xlink:href="#ArialMT-30" x="55.615234"/>
                        </g>
                    </g>
                </g>
                <g id="xtick_2">
                    <g id="line2d_2">
                        <path d="M 274.326875 393.21075
L 274.326875 23.12925 
" clip-path="url(#pd5fb6198a5)" style="fill: none; stroke: #cccccc; stroke-width: 0.8; stroke-linecap: round"/>
                    </g>
                    <g id="text_2">
                        <!-- 40 -->
                        <g style="fill: #262626" transform="translate(269.43325 407.809625) scale(0.088 -0.088)">
                            <defs>
                                <path id="ArialMT-34" d="M 2069 0
L 2069 1097 
L 81 1097 
L 81 1613 
L 2172 4581 
L 2631 4581 
L 2631 1613 
L 3250 1613 
L 3250 1097 
L 2631 1097 
L 2631 0 
L 2069 0 
z
M 2069 1613 
L 2069 3678 
L 634 1613 
L 2069 1613 
z
" transform="scale(0.015625)"/>
                            </defs>
                            <use xlink:href="#ArialMT-34"/>
                            <use xlink:href="#ArialMT-30" x="55.615234"/>
                        </g>
                    </g>
                </g>
                <g id="xtick_3">
                    <g id="line2d_3">
                        <path d="M 409.305208 393.21075
L 409.305208 23.12925 
" clip-path="url(#pd5fb6198a5)" style="fill: none; stroke: #cccccc; stroke-width: 0.8; stroke-linecap: round"/>
                    </g>
                    <g id="text_3">
                        <!-- 60 -->
                        <g style="fill: #262626" transform="translate(404.411583 407.809625) scale(0.088 -0.088)">
                            <defs>
                                <path id="ArialMT-36" d="M 3184 3459
L 2625 3416 
Q 2550 3747 2413 3897 
Q 2184 4138 1850 4138 
Q 1581 4138 1378 3988 
Q 1113 3794 959 3422 
Q 806 3050 800 2363 
Q 1003 2672 1297 2822 
Q 1591 2972 1913 2972 
Q 2475 2972 2870 2558 
Q 3266 2144 3266 1488 
Q 3266 1056 3080 686 
Q 2894 316 2569 119 
Q 2244 -78 1831 -78 
Q 1128 -78 684 439 
Q 241 956 241 2144 
Q 241 3472 731 4075 
Q 1159 4600 1884 4600 
Q 2425 4600 2770 4297 
Q 3116 3994 3184 3459 
z
M 888 1484 
Q 888 1194 1011 928 
Q 1134 663 1356 523 
Q 1578 384 1822 384 
Q 2178 384 2434 671 
Q 2691 959 2691 1453 
Q 2691 1928 2437 2201 
Q 2184 2475 1800 2475 
Q 1419 2475 1153 2201 
Q 888 1928 888 1484 
z
" transform="scale(0.015625)"/>
                            </defs>
                            <use xlink:href="#ArialMT-36"/>
                            <use xlink:href="#ArialMT-30" x="55.615234"/>
                        </g>
                    </g>
                </g>
                <g id="xtick_4">
                    <g id="line2d_4">
                        <path d="M 544.283542 393.21075
L 544.283542 23.12925 
" clip-path="url(#pd5fb6198a5)" style="fill: none; stroke: #cccccc; stroke-width: 0.8; stroke-linecap: round"/>
                    </g>
                    <g id="text_4">
                        <!-- 80 -->
                        <g style="fill: #262626" transform="translate(539.389917 407.809625) scale(0.088 -0.088)">
                            <defs>
                                <path id="ArialMT-38" d="M 1131 2484
Q 781 2613 612 2850 
Q 444 3088 444 3419 
Q 444 3919 803 4259 
Q 1163 4600 1759 4600 
Q 2359 4600 2725 4251 
Q 3091 3903 3091 3403 
Q 3091 3084 2923 2848 
Q 2756 2613 2416 2484 
Q 2838 2347 3058 2040 
Q 3278 1734 3278 1309 
Q 3278 722 2862 322 
Q 2447 -78 1769 -78 
Q 1091 -78 675 323 
Q 259 725 259 1325 
Q 259 1772 486 2073 
Q 713 2375 1131 2484 
z
M 1019 3438 
Q 1019 3113 1228 2906 
Q 1438 2700 1772 2700 
Q 2097 2700 2305 2904 
Q 2513 3109 2513 3406 
Q 2513 3716 2298 3927 
Q 2084 4138 1766 4138 
Q 1444 4138 1231 3931 
Q 1019 3725 1019 3438 
z
M 838 1322 
Q 838 1081 952 856 
Q 1066 631 1291 507 
Q 1516 384 1775 384 
Q 2178 384 2440 643 
Q 2703 903 2703 1303 
Q 2703 1709 2433 1975 
Q 2163 2241 1756 2241 
Q 1359 2241 1098 1978 
Q 838 1716 838 1322 
z
" transform="scale(0.015625)"/>
                            </defs>
                            <use xlink:href="#ArialMT-38"/>
                            <use xlink:href="#ArialMT-30" x="55.615234"/>
                        </g>
                    </g>
                </g>
                <g id="xtick_5">
                    <g id="line2d_5">
                        <path d="M 679.261875 393.21075
L 679.261875 23.12925 
" clip-path="url(#pd5fb6198a5)" style="fill: none; stroke: #cccccc; stroke-width: 0.8; stroke-linecap: round"/>
                    </g>
                    <g id="text_5">
                        <!-- 100 -->
                        <g style="fill: #262626" transform="translate(671.921438 407.809625) scale(0.088 -0.088)">
                            <defs>
                                <path id="ArialMT-31" d="M 2384 0
L 1822 0 
L 1822 3584 
Q 1619 3391 1289 3197 
Q 959 3003 697 2906 
L 697 3450 
Q 1169 3672 1522 3987 
Q 1875 4303 2022 4600 
L 2384 4600 
L 2384 0 
z
" transform="scale(0.015625)"/>
                            </defs>
                            <use xlink:href="#ArialMT-31"/>
                            <use xlink:href="#ArialMT-30" x="55.615234"/>
                            <use xlink:href="#ArialMT-30" x="111.230469"/>
                        </g>
                    </g>
                </g>
                <g id="text_6">
                    <!-- Dimension (size of the cubic array) -->
                    <g style="fill: #262626" transform="translate(301.671375 420.547125) scale(0.096 -0.096)">
                        <defs>
                            <path id="ArialMT-44" d="M 494 0
L 494 4581 
L 2072 4581 
Q 2606 4581 2888 4516 
Q 3281 4425 3559 4188 
Q 3922 3881 4101 3404 
Q 4281 2928 4281 2316 
Q 4281 1794 4159 1391 
Q 4038 988 3847 723 
Q 3656 459 3429 307 
Q 3203 156 2883 78 
Q 2563 0 2147 0 
L 494 0 
z
M 1100 541 
L 2078 541 
Q 2531 541 2789 625 
Q 3047 709 3200 863 
Q 3416 1078 3536 1442 
Q 3656 1806 3656 2325 
Q 3656 3044 3420 3430 
Q 3184 3816 2847 3947 
Q 2603 4041 2063 4041 
L 1100 4041 
L 1100 541 
z
" transform="scale(0.015625)"/>
                            <path id="ArialMT-69" d="M 425 3934
L 425 4581 
L 988 4581 
L 988 3934 
L 425 3934 
z
M 425 0 
L 425 3319 
L 988 3319 
L 988 0 
L 425 0 
z
" transform="scale(0.015625)"/>
                            <path id="ArialMT-6d" d="M 422 0
L 422 3319 
L 925 3319 
L 925 2853 
Q 1081 3097 1340 3245 
Q 1600 3394 1931 3394 
Q 2300 3394 2536 3241 
Q 2772 3088 2869 2813 
Q 3263 3394 3894 3394 
Q 4388 3394 4653 3120 
Q 4919 2847 4919 2278 
L 4919 0 
L 4359 0 
L 4359 2091 
Q 4359 2428 4304 2576 
Q 4250 2725 4106 2815 
Q 3963 2906 3769 2906 
Q 3419 2906 3187 2673 
Q 2956 2441 2956 1928 
L 2956 0 
L 2394 0 
L 2394 2156 
Q 2394 2531 2256 2718 
Q 2119 2906 1806 2906 
Q 1569 2906 1367 2781 
Q 1166 2656 1075 2415 
Q 984 2175 984 1722 
L 984 0 
L 422 0 
z
" transform="scale(0.015625)"/>
                            <path id="ArialMT-65" d="M 2694 1069
L 3275 997 
Q 3138 488 2766 206 
Q 2394 -75 1816 -75 
Q 1088 -75 661 373 
Q 234 822 234 1631 
Q 234 2469 665 2931 
Q 1097 3394 1784 3394 
Q 2450 3394 2872 2941 
Q 3294 2488 3294 1666 
Q 3294 1616 3291 1516 
L 816 1516 
Q 847 969 1125 678 
Q 1403 388 1819 388 
Q 2128 388 2347 550 
Q 2566 713 2694 1069 
z
M 847 1978 
L 2700 1978 
Q 2663 2397 2488 2606 
Q 2219 2931 1791 2931 
Q 1403 2931 1139 2672 
Q 875 2413 847 1978 
z
" transform="scale(0.015625)"/>
                            <path id="ArialMT-6e" d="M 422 0
L 422 3319 
L 928 3319 
L 928 2847 
Q 1294 3394 1984 3394 
Q 2284 3394 2536 3286 
Q 2788 3178 2913 3003 
Q 3038 2828 3088 2588 
Q 3119 2431 3119 2041 
L 3119 0 
L 2556 0 
L 2556 2019 
Q 2556 2363 2490 2533 
Q 2425 2703 2258 2804 
Q 2091 2906 1866 2906 
Q 1506 2906 1245 2678 
Q 984 2450 984 1813 
L 984 0 
L 422 0 
z
" transform="scale(0.015625)"/>
                            <path id="ArialMT-73" d="M 197 991
L 753 1078 
Q 800 744 1014 566 
Q 1228 388 1613 388 
Q 2000 388 2187 545 
Q 2375 703 2375 916 
Q 2375 1106 2209 1216 
Q 2094 1291 1634 1406 
Q 1016 1563 777 1677 
Q 538 1791 414 1992 
Q 291 2194 291 2438 
Q 291 2659 392 2848 
Q 494 3038 669 3163 
Q 800 3259 1026 3326 
Q 1253 3394 1513 3394 
Q 1903 3394 2198 3281 
Q 2494 3169 2634 2976 
Q 2775 2784 2828 2463 
L 2278 2388 
Q 2241 2644 2061 2787 
Q 1881 2931 1553 2931 
Q 1166 2931 1000 2803 
Q 834 2675 834 2503 
Q 834 2394 903 2306 
Q 972 2216 1119 2156 
Q 1203 2125 1616 2013 
Q 2213 1853 2448 1751 
Q 2684 1650 2818 1456 
Q 2953 1263 2953 975 
Q 2953 694 2789 445 
Q 2625 197 2315 61 
Q 2006 -75 1616 -75 
Q 969 -75 630 194 
Q 291 463 197 991 
z
" transform="scale(0.015625)"/>
                            <path id="ArialMT-6f" d="M 213 1659
Q 213 2581 725 3025 
Q 1153 3394 1769 3394 
Q 2453 3394 2887 2945 
Q 3322 2497 3322 1706 
Q 3322 1066 3130 698 
Q 2938 331 2570 128 
Q 2203 -75 1769 -75 
Q 1072 -75 642 372 
Q 213 819 213 1659 
z
M 791 1659 
Q 791 1022 1069 705 
Q 1347 388 1769 388 
Q 2188 388 2466 706 
Q 2744 1025 2744 1678 
Q 2744 2294 2464 2611 
Q 2184 2928 1769 2928 
Q 1347 2928 1069 2612 
Q 791 2297 791 1659 
z
" transform="scale(0.015625)"/>
                            <path id="ArialMT-20" transform="scale(0.015625)"/>
                            <path id="ArialMT-28" d="M 1497 -1347
Q 1031 -759 709 28 
Q 388 816 388 1659 
Q 388 2403 628 3084 
Q 909 3875 1497 4659 
L 1900 4659 
Q 1522 4009 1400 3731 
Q 1209 3300 1100 2831 
Q 966 2247 966 1656 
Q 966 153 1900 -1347 
L 1497 -1347 
z
" transform="scale(0.015625)"/>
                            <path id="ArialMT-7a" d="M 125 0
L 125 456 
L 2238 2881 
Q 1878 2863 1603 2863 
L 250 2863 
L 250 3319 
L 2963 3319 
L 2963 2947 
L 1166 841 
L 819 456 
Q 1197 484 1528 484 
L 3063 484 
L 3063 0 
L 125 0 
z
" transform="scale(0.015625)"/>
                            <path id="ArialMT-66" d="M 556 0
L 556 2881 
L 59 2881 
L 59 3319 
L 556 3319 
L 556 3672 
Q 556 4006 616 4169 
Q 697 4388 901 4523 
Q 1106 4659 1475 4659 
Q 1713 4659 2000 4603 
L 1916 4113 
Q 1741 4144 1584 4144 
Q 1328 4144 1222 4034 
Q 1116 3925 1116 3625 
L 1116 3319 
L 1763 3319 
L 1763 2881 
L 1116 2881 
L 1116 0 
L 556 0 
z
" transform="scale(0.015625)"/>
                            <path id="ArialMT-74" d="M 1650 503
L 1731 6 
Q 1494 -44 1306 -44 
Q 1000 -44 831 53 
Q 663 150 594 308 
Q 525 466 525 972 
L 525 2881 
L 113 2881 
L 113 3319 
L 525 3319 
L 525 4141 
L 1084 4478 
L 1084 3319 
L 1650 3319 
L 1650 2881 
L 1084 2881 
L 1084 941 
Q 1084 700 1114 631 
Q 1144 563 1211 522 
Q 1278 481 1403 481 
Q 1497 481 1650 503 
z
" transform="scale(0.015625)"/>
                            <path id="ArialMT-68" d="M 422 0
L 422 4581 
L 984 4581 
L 984 2938 
Q 1378 3394 1978 3394 
Q 2347 3394 2619 3248 
Q 2891 3103 3008 2847 
Q 3125 2591 3125 2103 
L 3125 0 
L 2563 0 
L 2563 2103 
Q 2563 2525 2380 2717 
Q 2197 2909 1863 2909 
Q 1613 2909 1392 2779 
Q 1172 2650 1078 2428 
Q 984 2206 984 1816 
L 984 0 
L 422 0 
z
" transform="scale(0.015625)"/>
                            <path id="ArialMT-63" d="M 2588 1216
L 3141 1144 
Q 3050 572 2676 248 
Q 2303 -75 1759 -75 
Q 1078 -75 664 370 
Q 250 816 250 1647 
Q 250 2184 428 2587 
Q 606 2991 970 3192 
Q 1334 3394 1763 3394 
Q 2303 3394 2647 3120 
Q 2991 2847 3088 2344 
L 2541 2259 
Q 2463 2594 2264 2762 
Q 2066 2931 1784 2931 
Q 1359 2931 1093 2626 
Q 828 2322 828 1663 
Q 828 994 1084 691 
Q 1341 388 1753 388 
Q 2084 388 2306 591 
Q 2528 794 2588 1216 
z
" transform="scale(0.015625)"/>
                            <path id="ArialMT-75" d="M 2597 0
L 2597 488 
Q 2209 -75 1544 -75 
Q 1250 -75 995 37 
Q 741 150 617 320 
Q 494 491 444 738 
Q 409 903 409 1263 
L 409 3319 
L 972 3319 
L 972 1478 
Q 972 1038 1006 884 
Q 1059 663 1231 536 
Q 1403 409 1656 409 
Q 1909 409 2131 539 
Q 2353 669 2445 892 
Q 2538 1116 2538 1541 
L 2538 3319 
L 3100 3319 
L 3100 0 
L 2597 0 
z
" transform="scale(0.015625)"/>
                            <path id="ArialMT-62" d="M 941 0
L 419 0 
L 419 4581 
L 981 4581 
L 981 2947 
Q 1338 3394 1891 3394 
Q 2197 3394 2470 3270 
Q 2744 3147 2920 2923 
Q 3097 2700 3197 2384 
Q 3297 2069 3297 1709 
Q 3297 856 2875 390 
Q 2453 -75 1863 -75 
Q 1275 -75 941 416 
L 941 0 
z
M 934 1684 
Q 934 1088 1097 822 
Q 1363 388 1816 388 
Q 2184 388 2453 708 
Q 2722 1028 2722 1663 
Q 2722 2313 2464 2622 
Q 2206 2931 1841 2931 
Q 1472 2931 1203 2611 
Q 934 2291 934 1684 
z
" transform="scale(0.015625)"/>
                            <path id="ArialMT-61" d="M 2588 409
Q 2275 144 1986 34 
Q 1697 -75 1366 -75 
Q 819 -75 525 192 
Q 231 459 231 875 
Q 231 1119 342 1320 
Q 453 1522 633 1644 
Q 813 1766 1038 1828 
Q 1203 1872 1538 1913 
Q 2219 1994 2541 2106 
Q 2544 2222 2544 2253 
Q 2544 2597 2384 2738 
Q 2169 2928 1744 2928 
Q 1347 2928 1158 2789 
Q 969 2650 878 2297 
L 328 2372 
Q 403 2725 575 2942 
Q 747 3159 1072 3276 
Q 1397 3394 1825 3394 
Q 2250 3394 2515 3294 
Q 2781 3194 2906 3042 
Q 3031 2891 3081 2659 
Q 3109 2516 3109 2141 
L 3109 1391 
Q 3109 606 3145 398 
Q 3181 191 3288 0 
L 2700 0 
Q 2613 175 2588 409 
z
M 2541 1666 
Q 2234 1541 1622 1453 
Q 1275 1403 1131 1340 
Q 988 1278 909 1158 
Q 831 1038 831 891 
Q 831 666 1001 516 
Q 1172 366 1500 366 
Q 1825 366 2078 508 
Q 2331 650 2450 897 
Q 2541 1088 2541 1459 
L 2541 1666 
z
" transform="scale(0.015625)"/>
                            <path id="ArialMT-72" d="M 416 0
L 416 3319 
L 922 3319 
L 922 2816 
Q 1116 3169 1280 3281 
Q 1444 3394 1641 3394 
Q 1925 3394 2219 3213 
L 2025 2691 
Q 1819 2813 1613 2813 
Q 1428 2813 1281 2702 
Q 1134 2591 1072 2394 
Q 978 2094 978 1738 
L 978 0 
L 416 0 
z
" transform="scale(0.015625)"/>
                            <path id="ArialMT-79" d="M 397 -1278
L 334 -750 
Q 519 -800 656 -800 
Q 844 -800 956 -737 
Q 1069 -675 1141 -563 
Q 1194 -478 1313 -144 
Q 1328 -97 1363 -6 
L 103 3319 
L 709 3319 
L 1400 1397 
Q 1534 1031 1641 628 
Q 1738 1016 1872 1384 
L 2581 3319 
L 3144 3319 
L 1881 -56 
Q 1678 -603 1566 -809 
Q 1416 -1088 1222 -1217 
Q 1028 -1347 759 -1347 
Q 597 -1347 397 -1278 
z
" transform="scale(0.015625)"/>
                            <path id="ArialMT-29" d="M 791 -1347
L 388 -1347 
Q 1322 153 1322 1656 
Q 1322 2244 1188 2822 
Q 1081 3291 891 3722 
Q 769 4003 388 4659 
L 791 4659 
Q 1378 3875 1659 3084 
Q 1900 2403 1900 1659 
Q 1900 816 1576 28 
Q 1253 -759 791 -1347 
z
" transform="scale(0.015625)"/>
                        </defs>
                        <use xlink:href="#ArialMT-44"/>
                        <use xlink:href="#ArialMT-69" x="72.216797"/>
                        <use xlink:href="#ArialMT-6d" x="94.433594"/>
                        <use xlink:href="#ArialMT-65" x="177.734375"/>
                        <use xlink:href="#ArialMT-6e" x="233.349609"/>
                        <use xlink:href="#ArialMT-73" x="288.964844"/>
                        <use xlink:href="#ArialMT-69" x="338.964844"/>
                        <use xlink:href="#ArialMT-6f" x="361.181641"/>
                        <use xlink:href="#ArialMT-6e" x="416.796875"/>
                        <use xlink:href="#ArialMT-20" x="472.412109"/>
                        <use xlink:href="#ArialMT-28" x="500.195312"/>
                        <use xlink:href="#ArialMT-73" x="533.496094"/>
                        <use xlink:href="#ArialMT-69" x="583.496094"/>
                        <use xlink:href="#ArialMT-7a" x="605.712891"/>
                        <use xlink:href="#ArialMT-65" x="655.712891"/>
                        <use xlink:href="#ArialMT-20" x="711.328125"/>
                        <use xlink:href="#ArialMT-6f" x="739.111328"/>
                        <use xlink:href="#ArialMT-66" x="794.726562"/>
                        <use xlink:href="#ArialMT-20" x="822.509766"/>
                        <use xlink:href="#ArialMT-74" x="850.292969"/>
                        <use xlink:href="#ArialMT-68" x="878.076172"/>
                        <use xlink:href="#ArialMT-65" x="933.691406"/>
                        <use xlink:href="#ArialMT-20" x="989.306641"/>
                        <use xlink:href="#ArialMT-63" x="1017.089844"/>
                        <use xlink:href="#ArialMT-75" x="1067.089844"/>
                        <use xlink:href="#ArialMT-62" x="1122.705078"/>
                        <use xlink:href="#ArialMT-69" x="1178.320312"/>
                        <use xlink:href="#ArialMT-63" x="1200.537109"/>
                        <use xlink:href="#ArialMT-20" x="1250.537109"/>
                        <use xlink:href="#ArialMT-61" x="1278.320312"/>
                        <use xlink:href="#ArialMT-72" x="1333.935547"/>
                        <use xlink:href="#ArialMT-72" x="1367.236328"/>
                        <use xlink:href="#ArialMT-61" x="1400.537109"/>
                        <use xlink:href="#ArialMT-79" x="1456.152344"/>
                        <use xlink:href="#ArialMT-29" x="1506.152344"/>
                    </g>
                </g>
            </g>
            <g id="matplotlib.axis_2">
                <g id="ytick_1">
                    <g id="line2d_6">
                        <path d="M 41.48925 376.74843
L 709.632 376.74843 
" clip-path="url(#pd5fb6198a5)" style="fill: none; stroke: #cccccc; stroke-width: 0.8; stroke-linecap: round"/>
                    </g>
                    <g id="text_7">
                        <!-- 0 -->
                        <g style="fill: #262626" transform="translate(28.295625 379.897867) scale(0.088 -0.088)">
                            <use xlink:href="#ArialMT-30"/>
                        </g>
                    </g>
                </g>
                <g id="ytick_2">
                    <g id="line2d_7">
                        <path d="M 41.48925 332.262576
L 709.632 332.262576 
" clip-path="url(#pd5fb6198a5)" style="fill: none; stroke: #cccccc; stroke-width: 0.8; stroke-linecap: round"/>
                    </g>
                    <g id="text_8">
                        <!-- 5 -->
                        <g style="fill: #262626" transform="translate(28.295625 335.412014) scale(0.088 -0.088)">
                            <defs>
                                <path id="ArialMT-35" d="M 266 1200
L 856 1250 
Q 922 819 1161 601 
Q 1400 384 1738 384 
Q 2144 384 2425 690 
Q 2706 997 2706 1503 
Q 2706 1984 2436 2262 
Q 2166 2541 1728 2541 
Q 1456 2541 1237 2417 
Q 1019 2294 894 2097 
L 366 2166 
L 809 4519 
L 3088 4519 
L 3088 3981 
L 1259 3981 
L 1013 2750 
Q 1425 3038 1878 3038 
Q 2478 3038 2890 2622 
Q 3303 2206 3303 1553 
Q 3303 931 2941 478 
Q 2500 -78 1738 -78 
Q 1113 -78 717 272 
Q 322 622 266 1200 
z
" transform="scale(0.015625)"/>
                            </defs>
                            <use xlink:href="#ArialMT-35"/>
                        </g>
                    </g>
                </g>
                <g id="ytick_3">
                    <g id="line2d_8">
                        <path d="M 41.48925 287.776723
L 709.632 287.776723 
" clip-path="url(#pd5fb6198a5)" style="fill: none; stroke: #cccccc; stroke-width: 0.8; stroke-linecap: round"/>
                    </g>
                    <g id="text_9">
                        <!-- 10 -->
                        <g style="fill: #262626" transform="translate(23.402 290.926161) scale(0.088 -0.088)">
                            <use xlink:href="#ArialMT-31"/>
                            <use xlink:href="#ArialMT-30" x="55.615234"/>
                        </g>
                    </g>
                </g>
                <g id="ytick_4">
                    <g id="line2d_9">
                        <path d="M 41.48925 243.29087
L 709.632 243.29087 
" clip-path="url(#pd5fb6198a5)" style="fill: none; stroke: #cccccc; stroke-width: 0.8; stroke-linecap: round"/>
                    </g>
                    <g id="text_10">
                        <!-- 15 -->
                        <g style="fill: #262626" transform="translate(23.402 246.440307) scale(0.088 -0.088)">
                            <use xlink:href="#ArialMT-31"/>
                            <use xlink:href="#ArialMT-35" x="55.615234"/>
                        </g>
                    </g>
                </g>
                <g id="ytick_5">
                    <g id="line2d_10">
                        <path d="M 41.48925 198.805016
L 709.632 198.805016 
" clip-path="url(#pd5fb6198a5)" style="fill: none; stroke: #cccccc; stroke-width: 0.8; stroke-linecap: round"/>
                    </g>
                    <g id="text_11">
                        <!-- 20 -->
                        <g style="fill: #262626" transform="translate(23.402 201.954454) scale(0.088 -0.088)">
                            <use xlink:href="#ArialMT-32"/>
                            <use xlink:href="#ArialMT-30" x="55.615234"/>
                        </g>
                    </g>
                </g>
                <g id="ytick_6">
                    <g id="line2d_11">
                        <path d="M 41.48925 154.319163
L 709.632 154.319163 
" clip-path="url(#pd5fb6198a5)" style="fill: none; stroke: #cccccc; stroke-width: 0.8; stroke-linecap: round"/>
                    </g>
                    <g id="text_12">
                        <!-- 25 -->
                        <g style="fill: #262626" transform="translate(23.402 157.4686) scale(0.088 -0.088)">
                            <use xlink:href="#ArialMT-32"/>
                            <use xlink:href="#ArialMT-35" x="55.615234"/>
                        </g>
                    </g>
                </g>
                <g id="ytick_7">
                    <g id="line2d_12">
                        <path d="M 41.48925 109.83331
L 709.632 109.83331 
" clip-path="url(#pd5fb6198a5)" style="fill: none; stroke: #cccccc; stroke-width: 0.8; stroke-linecap: round"/>
                    </g>
                    <g id="text_13">
                        <!-- 30 -->
                        <g style="fill: #262626" transform="translate(23.402 112.982747) scale(0.088 -0.088)">
                            <defs>
                                <path id="ArialMT-33" d="M 269 1209
L 831 1284 
Q 928 806 1161 595 
Q 1394 384 1728 384 
Q 2125 384 2398 659 
Q 2672 934 2672 1341 
Q 2672 1728 2419 1979 
Q 2166 2231 1775 2231 
Q 1616 2231 1378 2169 
L 1441 2663 
Q 1497 2656 1531 2656 
Q 1891 2656 2178 2843 
Q 2466 3031 2466 3422 
Q 2466 3731 2256 3934 
Q 2047 4138 1716 4138 
Q 1388 4138 1169 3931 
Q 950 3725 888 3313 
L 325 3413 
Q 428 3978 793 4289 
Q 1159 4600 1703 4600 
Q 2078 4600 2393 4439 
Q 2709 4278 2876 4000 
Q 3044 3722 3044 3409 
Q 3044 3113 2884 2869 
Q 2725 2625 2413 2481 
Q 2819 2388 3044 2092 
Q 3269 1797 3269 1353 
Q 3269 753 2831 336 
Q 2394 -81 1725 -81 
Q 1122 -81 723 278 
Q 325 638 269 1209 
z
" transform="scale(0.015625)"/>
                            </defs>
                            <use xlink:href="#ArialMT-33"/>
                            <use xlink:href="#ArialMT-30" x="55.615234"/>
                        </g>
                    </g>
                </g>
                <g id="ytick_8">
                    <g id="line2d_13">
                        <path d="M 41.48925 65.347456
L 709.632 65.347456 
" clip-path="url(#pd5fb6198a5)" style="fill: none; stroke: #cccccc; stroke-width: 0.8; stroke-linecap: round"/>
                    </g>
                    <g id="text_14">
                        <!-- 35 -->
                        <g style="fill: #262626" transform="translate(23.402 68.496894) scale(0.088 -0.088)">
                            <use xlink:href="#ArialMT-33"/>
                            <use xlink:href="#ArialMT-35" x="55.615234"/>
                        </g>
                    </g>
                </g>
                <g id="text_15">
                    <!-- Average Execution Time (seconds) -->
                    <g style="fill: #262626" transform="translate(17.3815 282.5175) rotate(-90) scale(0.096 -0.096)">
                        <defs>
                            <path id="ArialMT-41" d="M -9 0
L 1750 4581 
L 2403 4581 
L 4278 0 
L 3588 0 
L 3053 1388 
L 1138 1388 
L 634 0 
L -9 0 
z
M 1313 1881 
L 2866 1881 
L 2388 3150 
Q 2169 3728 2063 4100 
Q 1975 3659 1816 3225 
L 1313 1881 
z
" transform="scale(0.015625)"/>
                            <path id="ArialMT-76" d="M 1344 0
L 81 3319 
L 675 3319 
L 1388 1331 
Q 1503 1009 1600 663 
Q 1675 925 1809 1294 
L 2547 3319 
L 3125 3319 
L 1869 0 
L 1344 0 
z
" transform="scale(0.015625)"/>
                            <path id="ArialMT-67" d="M 319 -275
L 866 -356 
Q 900 -609 1056 -725 
Q 1266 -881 1628 -881 
Q 2019 -881 2231 -725 
Q 2444 -569 2519 -288 
Q 2563 -116 2559 434 
Q 2191 0 1641 0 
Q 956 0 581 494 
Q 206 988 206 1678 
Q 206 2153 378 2554 
Q 550 2956 876 3175 
Q 1203 3394 1644 3394 
Q 2231 3394 2613 2919 
L 2613 3319 
L 3131 3319 
L 3131 450 
Q 3131 -325 2973 -648 
Q 2816 -972 2473 -1159 
Q 2131 -1347 1631 -1347 
Q 1038 -1347 672 -1080 
Q 306 -813 319 -275 
z
M 784 1719 
Q 784 1066 1043 766 
Q 1303 466 1694 466 
Q 2081 466 2343 764 
Q 2606 1063 2606 1700 
Q 2606 2309 2336 2618 
Q 2066 2928 1684 2928 
Q 1309 2928 1046 2623 
Q 784 2319 784 1719 
z
" transform="scale(0.015625)"/>
                            <path id="ArialMT-45" d="M 506 0
L 506 4581 
L 3819 4581 
L 3819 4041 
L 1113 4041 
L 1113 2638 
L 3647 2638 
L 3647 2100 
L 1113 2100 
L 1113 541 
L 3925 541 
L 3925 0 
L 506 0 
z
" transform="scale(0.015625)"/>
                            <path id="ArialMT-78" d="M 47 0
L 1259 1725 
L 138 3319 
L 841 3319 
L 1350 2541 
Q 1494 2319 1581 2169 
Q 1719 2375 1834 2534 
L 2394 3319 
L 3066 3319 
L 1919 1756 
L 3153 0 
L 2463 0 
L 1781 1031 
L 1600 1309 
L 728 0 
L 47 0 
z
" transform="scale(0.015625)"/>
                            <path id="ArialMT-54" d="M 1659 0
L 1659 4041 
L 150 4041 
L 150 4581 
L 3781 4581 
L 3781 4041 
L 2266 4041 
L 2266 0 
L 1659 0 
z
" transform="scale(0.015625)"/>
                            <path id="ArialMT-64" d="M 2575 0
L 2575 419 
Q 2259 -75 1647 -75 
Q 1250 -75 917 144 
Q 584 363 401 755 
Q 219 1147 219 1656 
Q 219 2153 384 2558 
Q 550 2963 881 3178 
Q 1213 3394 1622 3394 
Q 1922 3394 2156 3267 
Q 2391 3141 2538 2938 
L 2538 4581 
L 3097 4581 
L 3097 0 
L 2575 0 
z
M 797 1656 
Q 797 1019 1065 703 
Q 1334 388 1700 388 
Q 2069 388 2326 689 
Q 2584 991 2584 1609 
Q 2584 2291 2321 2609 
Q 2059 2928 1675 2928 
Q 1300 2928 1048 2622 
Q 797 2316 797 1656 
z
" transform="scale(0.015625)"/>
                        </defs>
                        <use xlink:href="#ArialMT-41"/>
                        <use xlink:href="#ArialMT-76" x="64.949219"/>
                        <use xlink:href="#ArialMT-65" x="114.949219"/>
                        <use xlink:href="#ArialMT-72" x="170.564453"/>
                        <use xlink:href="#ArialMT-61" x="203.865234"/>
                        <use xlink:href="#ArialMT-67" x="259.480469"/>
                        <use xlink:href="#ArialMT-65" x="315.095703"/>
                        <use xlink:href="#ArialMT-20" x="370.710938"/>
                        <use xlink:href="#ArialMT-45" x="398.494141"/>
                        <use xlink:href="#ArialMT-78" x="465.193359"/>
                        <use xlink:href="#ArialMT-65" x="515.193359"/>
                        <use xlink:href="#ArialMT-63" x="570.808594"/>
                        <use xlink:href="#ArialMT-75" x="620.808594"/>
                        <use xlink:href="#ArialMT-74" x="676.423828"/>
                        <use xlink:href="#ArialMT-69" x="704.207031"/>
                        <use xlink:href="#ArialMT-6f" x="726.423828"/>
                        <use xlink:href="#ArialMT-6e" x="782.039062"/>
                        <use xlink:href="#ArialMT-20" x="837.654297"/>
                        <use xlink:href="#ArialMT-54" x="863.6875"/>
                        <use xlink:href="#ArialMT-69" x="921.021484"/>
                        <use xlink:href="#ArialMT-6d" x="943.238281"/>
                        <use xlink:href="#ArialMT-65" x="1026.539062"/>
                        <use xlink:href="#ArialMT-20" x="1082.154297"/>
                        <use xlink:href="#ArialMT-28" x="1109.9375"/>
                        <use xlink:href="#ArialMT-73" x="1143.238281"/>
                        <use xlink:href="#ArialMT-65" x="1193.238281"/>
                        <use xlink:href="#ArialMT-63" x="1248.853516"/>
                        <use xlink:href="#ArialMT-6f" x="1298.853516"/>
                        <use xlink:href="#ArialMT-6e" x="1354.46875"/>
                        <use xlink:href="#ArialMT-64" x="1410.083984"/>
                        <use xlink:href="#ArialMT-73" x="1465.699219"/>
                        <use xlink:href="#ArialMT-29" x="1515.699219"/>
                    </g>
                </g>
            </g>
            <g id="PolyCollection_1">
                <defs>
                    <path id="mf57f1f8f42" d="M 71.859375 -56.626459
L 71.859375 -56.294943 
L 341.816042 -61.440763 
L 679.261875 -128.099682 
L 679.261875 -179.201063 
L 679.261875 -179.201063 
L 341.816042 -63.400822 
L 71.859375 -56.626459 
z
" style="stroke: #1f77b4; stroke-opacity: 0.2; stroke-width: 0.8"/>
                </defs>
                <g clip-path="url(#pd5fb6198a5)">
                    <use xlink:href="#mf57f1f8f42" x="0" y="432"
                         style="fill: #1f77b4; fill-opacity: 0.2; stroke: #1f77b4; stroke-opacity: 0.2; stroke-width: 0.8"/>
                </g>
            </g>
            <g id="PolyCollection_2">
                <defs>
                    <path id="ma27923f968" d="M 71.859375 -55.708454
L 71.859375 -55.611136 
L 341.816042 -79.158901 
L 679.261875 -339.98517 
L 679.261875 -392.048864 
L 679.261875 -392.048864 
L 341.816042 -81.144059 
L 71.859375 -55.708454 
z
" style="stroke: #ff7f0e; stroke-opacity: 0.2; stroke-width: 0.8"/>
                </defs>
                <g clip-path="url(#pd5fb6198a5)">
                    <use xlink:href="#ma27923f968" x="0" y="432"
                         style="fill: #ff7f0e; fill-opacity: 0.2; stroke: #ff7f0e; stroke-opacity: 0.2; stroke-width: 0.8"/>
                </g>
            </g>
            <g id="PolyCollection_3">
                <defs>
                    <path id="ma0b16f483d" d="M 71.859375 -68.321877
L 71.859375 -55.628281 
L 341.816042 -60.766787 
L 679.261875 -67.630936 
L 679.261875 -68.685745 
L 679.261875 -68.685745 
L 341.816042 -61.544969 
L 71.859375 -68.321877 
z
" style="stroke: #2ca02c; stroke-opacity: 0.2; stroke-width: 0.8"/>
                </defs>
                <g clip-path="url(#pd5fb6198a5)">
                    <use xlink:href="#ma0b16f483d" x="0" y="432"
                         style="fill: #2ca02c; fill-opacity: 0.2; stroke: #2ca02c; stroke-opacity: 0.2; stroke-width: 0.8"/>
                </g>
            </g>
            <g id="line2d_14">
                <path d="M 71.859375 375.539299
L 341.816042 369.579207 
L 679.261875 278.349628 
" clip-path="url(#pd5fb6198a5)" style="fill: none; stroke: #1f77b4; stroke-width: 1.2; stroke-linecap: round"/>
                <defs>
                    <path id="m7bf1228a77" d="M 0 2.4
C 0.636487 2.4 1.246992 2.147121 1.697056 1.697056 
C 2.147121 1.246992 2.4 0.636487 2.4 0 
C 2.4 -0.636487 2.147121 -1.246992 1.697056 -1.697056 
C 1.246992 -2.147121 0.636487 -2.4 0 -2.4 
C -0.636487 -2.4 -1.246992 -2.147121 -1.697056 -1.697056 
C -2.147121 -1.246992 -2.4 -0.636487 -2.4 0 
C -2.4 0.636487 -2.147121 1.246992 -1.697056 1.697056 
C -1.246992 2.147121 -0.636487 2.4 0 2.4 
z
" style="stroke: #ffffff; stroke-width: 0.75"/>
                </defs>
                <g clip-path="url(#pd5fb6198a5)">
                    <use xlink:href="#m7bf1228a77" x="71.859375" y="375.539299"
                         style="fill: #1f77b4; stroke: #ffffff; stroke-width: 0.75"/>
                    <use xlink:href="#m7bf1228a77" x="341.816042" y="369.579207"
                         style="fill: #1f77b4; stroke: #ffffff; stroke-width: 0.75"/>
                    <use xlink:href="#m7bf1228a77" x="679.261875" y="278.349628"
                         style="fill: #1f77b4; stroke: #ffffff; stroke-width: 0.75"/>
                </g>
            </g>
            <g id="line2d_15">
                <path d="M 71.859375 376.340205
L 341.816042 351.84852 
L 679.261875 65.982983 
" clip-path="url(#pd5fb6198a5)" style="fill: none; stroke: #ff7f0e; stroke-width: 1.2; stroke-linecap: round"/>
                <defs>
                    <path id="md773272ef1" d="M 0 2.4
C 0.636487 2.4 1.246992 2.147121 1.697056 1.697056 
C 2.147121 1.246992 2.4 0.636487 2.4 0 
C 2.4 -0.636487 2.147121 -1.246992 1.697056 -1.697056 
C 1.246992 -2.147121 0.636487 -2.4 0 -2.4 
C -0.636487 -2.4 -1.246992 -2.147121 -1.697056 -1.697056 
C -2.147121 -1.246992 -2.4 -0.636487 -2.4 0 
C -2.4 0.636487 -2.147121 1.246992 -1.697056 1.697056 
C -1.246992 2.147121 -0.636487 2.4 0 2.4 
z
" style="stroke: #ffffff; stroke-width: 0.75"/>
                </defs>
                <g clip-path="url(#pd5fb6198a5)">
                    <use xlink:href="#md773272ef1" x="71.859375" y="376.340205"
                         style="fill: #ff7f0e; stroke: #ffffff; stroke-width: 0.75"/>
                    <use xlink:href="#md773272ef1" x="341.816042" y="351.84852"
                         style="fill: #ff7f0e; stroke: #ffffff; stroke-width: 0.75"/>
                    <use xlink:href="#md773272ef1" x="679.261875" y="65.982983"
                         style="fill: #ff7f0e; stroke: #ffffff; stroke-width: 0.75"/>
                </g>
            </g>
            <g id="line2d_16">
                <path d="M 71.859375 370.024921
L 341.816042 370.844122 
L 679.261875 363.841659 
" clip-path="url(#pd5fb6198a5)" style="fill: none; stroke: #2ca02c; stroke-width: 1.2; stroke-linecap: round"/>
                <defs>
                    <path id="mc862bb82b4" d="M 0 2.4
C 0.636487 2.4 1.246992 2.147121 1.697056 1.697056 
C 2.147121 1.246992 2.4 0.636487 2.4 0 
C 2.4 -0.636487 2.147121 -1.246992 1.697056 -1.697056 
C 1.246992 -2.147121 0.636487 -2.4 0 -2.4 
C -0.636487 -2.4 -1.246992 -2.147121 -1.697056 -1.697056 
C -2.147121 -1.246992 -2.4 -0.636487 -2.4 0 
C -2.4 0.636487 -2.147121 1.246992 -1.697056 1.697056 
C -1.246992 2.147121 -0.636487 2.4 0 2.4 
z
" style="stroke: #ffffff; stroke-width: 0.75"/>
                </defs>
                <g clip-path="url(#pd5fb6198a5)">
                    <use xlink:href="#mc862bb82b4" x="71.859375" y="370.024921"
                         style="fill: #2ca02c; stroke: #ffffff; stroke-width: 0.75"/>
                    <use xlink:href="#mc862bb82b4" x="341.816042" y="370.844122"
                         style="fill: #2ca02c; stroke: #ffffff; stroke-width: 0.75"/>
                    <use xlink:href="#mc862bb82b4" x="679.261875" y="363.841659"
                         style="fill: #2ca02c; stroke: #ffffff; stroke-width: 0.75"/>
                </g>
            </g>
            <g id="line2d_17"/>
            <g id="line2d_18"/>
            <g id="line2d_19"/>
            <g id="patch_3">
                <path d="M 41.48925 393.21075
L 41.48925 23.12925 
" style="fill: none; stroke: #cccccc; stroke-linejoin: miter; stroke-linecap: square"/>
            </g>
            <g id="patch_4">
                <path d="M 709.632 393.21075
L 709.632 23.12925 
" style="fill: none; stroke: #cccccc; stroke-linejoin: miter; stroke-linecap: square"/>
            </g>
            <g id="patch_5">
                <path d="M 41.48925 393.21075
L 709.632 393.21075 
" style="fill: none; stroke: #cccccc; stroke-linejoin: miter; stroke-linecap: square"/>
            </g>
            <g id="patch_6">
                <path d="M 41.48925 23.12925
L 709.632 23.12925 
" style="fill: none; stroke: #cccccc; stroke-linejoin: miter; stroke-linecap: square"/>
            </g>
            <g id="text_16">
                <!-- Performance comparison of TV-L1 Proximal Operator solvers with Uncertainty -->
                <g style="fill: #262626" transform="translate(210.257625 17.12925) scale(0.096 -0.096)">
                    <defs>
                        <path id="ArialMT-50" d="M 494 0
L 494 4581 
L 2222 4581 
Q 2678 4581 2919 4538 
Q 3256 4481 3484 4323 
Q 3713 4166 3852 3881 
Q 3991 3597 3991 3256 
Q 3991 2672 3619 2267 
Q 3247 1863 2275 1863 
L 1100 1863 
L 1100 0 
L 494 0 
z
M 1100 2403 
L 2284 2403 
Q 2872 2403 3119 2622 
Q 3366 2841 3366 3238 
Q 3366 3525 3220 3729 
Q 3075 3934 2838 4000 
Q 2684 4041 2272 4041 
L 1100 4041 
L 1100 2403 
z
" transform="scale(0.015625)"/>
                        <path id="ArialMT-70" d="M 422 -1272
L 422 3319 
L 934 3319 
L 934 2888 
Q 1116 3141 1344 3267 
Q 1572 3394 1897 3394 
Q 2322 3394 2647 3175 
Q 2972 2956 3137 2557 
Q 3303 2159 3303 1684 
Q 3303 1175 3120 767 
Q 2938 359 2589 142 
Q 2241 -75 1856 -75 
Q 1575 -75 1351 44 
Q 1128 163 984 344 
L 984 -1272 
L 422 -1272 
z
M 931 1641 
Q 931 1000 1190 694 
Q 1450 388 1819 388 
Q 2194 388 2461 705 
Q 2728 1022 2728 1688 
Q 2728 2322 2467 2637 
Q 2206 2953 1844 2953 
Q 1484 2953 1207 2617 
Q 931 2281 931 1641 
z
" transform="scale(0.015625)"/>
                        <path id="ArialMT-56" d="M 1803 0
L 28 4581 
L 684 4581 
L 1875 1253 
Q 2019 853 2116 503 
Q 2222 878 2363 1253 
L 3600 4581 
L 4219 4581 
L 2425 0 
L 1803 0 
z
" transform="scale(0.015625)"/>
                        <path id="ArialMT-2d" d="M 203 1375
L 203 1941 
L 1931 1941 
L 1931 1375 
L 203 1375 
z
" transform="scale(0.015625)"/>
                        <path id="ArialMT-4c" d="M 469 0
L 469 4581 
L 1075 4581 
L 1075 541 
L 3331 541 
L 3331 0 
L 469 0 
z
" transform="scale(0.015625)"/>
                        <path id="ArialMT-6c" d="M 409 0
L 409 4581 
L 972 4581 
L 972 0 
L 409 0 
z
" transform="scale(0.015625)"/>
                        <path id="ArialMT-4f" d="M 309 2231
Q 309 3372 921 4017 
Q 1534 4663 2503 4663 
Q 3138 4663 3647 4359 
Q 4156 4056 4423 3514 
Q 4691 2972 4691 2284 
Q 4691 1588 4409 1038 
Q 4128 488 3612 205 
Q 3097 -78 2500 -78 
Q 1853 -78 1343 234 
Q 834 547 571 1087 
Q 309 1628 309 2231 
z
M 934 2222 
Q 934 1394 1379 917 
Q 1825 441 2497 441 
Q 3181 441 3623 922 
Q 4066 1403 4066 2288 
Q 4066 2847 3877 3264 
Q 3688 3681 3323 3911 
Q 2959 4141 2506 4141 
Q 1863 4141 1398 3698 
Q 934 3256 934 2222 
z
" transform="scale(0.015625)"/>
                        <path id="ArialMT-77" d="M 1034 0
L 19 3319 
L 600 3319 
L 1128 1403 
L 1325 691 
Q 1338 744 1497 1375 
L 2025 3319 
L 2603 3319 
L 3100 1394 
L 3266 759 
L 3456 1400 
L 4025 3319 
L 4572 3319 
L 3534 0 
L 2950 0 
L 2422 1988 
L 2294 2553 
L 1622 0 
L 1034 0 
z
" transform="scale(0.015625)"/>
                        <path id="ArialMT-55" d="M 3500 4581
L 4106 4581 
L 4106 1934 
Q 4106 1244 3950 837 
Q 3794 431 3386 176 
Q 2978 -78 2316 -78 
Q 1672 -78 1262 144 
Q 853 366 678 786 
Q 503 1206 503 1934 
L 503 4581 
L 1109 4581 
L 1109 1938 
Q 1109 1341 1220 1058 
Q 1331 775 1601 622 
Q 1872 469 2263 469 
Q 2931 469 3215 772 
Q 3500 1075 3500 1938 
L 3500 4581 
z
" transform="scale(0.015625)"/>
                    </defs>
                    <use xlink:href="#ArialMT-50"/>
                    <use xlink:href="#ArialMT-65" x="66.699219"/>
                    <use xlink:href="#ArialMT-72" x="122.314453"/>
                    <use xlink:href="#ArialMT-66" x="155.615234"/>
                    <use xlink:href="#ArialMT-6f" x="183.398438"/>
                    <use xlink:href="#ArialMT-72" x="239.013672"/>
                    <use xlink:href="#ArialMT-6d" x="272.314453"/>
                    <use xlink:href="#ArialMT-61" x="355.615234"/>
                    <use xlink:href="#ArialMT-6e" x="411.230469"/>
                    <use xlink:href="#ArialMT-63" x="466.845703"/>
                    <use xlink:href="#ArialMT-65" x="516.845703"/>
                    <use xlink:href="#ArialMT-20" x="572.460938"/>
                    <use xlink:href="#ArialMT-63" x="600.244141"/>
                    <use xlink:href="#ArialMT-6f" x="650.244141"/>
                    <use xlink:href="#ArialMT-6d" x="705.859375"/>
                    <use xlink:href="#ArialMT-70" x="789.160156"/>
                    <use xlink:href="#ArialMT-61" x="844.775391"/>
                    <use xlink:href="#ArialMT-72" x="900.390625"/>
                    <use xlink:href="#ArialMT-69" x="933.691406"/>
                    <use xlink:href="#ArialMT-73" x="955.908203"/>
                    <use xlink:href="#ArialMT-6f" x="1005.908203"/>
                    <use xlink:href="#ArialMT-6e" x="1061.523438"/>
                    <use xlink:href="#ArialMT-20" x="1117.138672"/>
                    <use xlink:href="#ArialMT-6f" x="1144.921875"/>
                    <use xlink:href="#ArialMT-66" x="1200.537109"/>
                    <use xlink:href="#ArialMT-20" x="1228.320312"/>
                    <use xlink:href="#ArialMT-54" x="1254.353516"/>
                    <use xlink:href="#ArialMT-56" x="1315.4375"/>
                    <use xlink:href="#ArialMT-2d" x="1376.636719"/>
                    <use xlink:href="#ArialMT-4c" x="1409.9375"/>
                    <use xlink:href="#ArialMT-31" x="1465.552734"/>
                    <use xlink:href="#ArialMT-20" x="1521.167969"/>
                    <use xlink:href="#ArialMT-50" x="1548.951172"/>
                    <use xlink:href="#ArialMT-72" x="1615.650391"/>
                    <use xlink:href="#ArialMT-6f" x="1648.951172"/>
                    <use xlink:href="#ArialMT-78" x="1704.566406"/>
                    <use xlink:href="#ArialMT-69" x="1754.566406"/>
                    <use xlink:href="#ArialMT-6d" x="1776.783203"/>
                    <use xlink:href="#ArialMT-61" x="1860.083984"/>
                    <use xlink:href="#ArialMT-6c" x="1915.699219"/>
                    <use xlink:href="#ArialMT-20" x="1937.916016"/>
                    <use xlink:href="#ArialMT-4f" x="1965.699219"/>
                    <use xlink:href="#ArialMT-70" x="2043.482422"/>
                    <use xlink:href="#ArialMT-65" x="2099.097656"/>
                    <use xlink:href="#ArialMT-72" x="2154.712891"/>
                    <use xlink:href="#ArialMT-61" x="2188.013672"/>
                    <use xlink:href="#ArialMT-74" x="2243.628906"/>
                    <use xlink:href="#ArialMT-6f" x="2271.412109"/>
                    <use xlink:href="#ArialMT-72" x="2327.027344"/>
                    <use xlink:href="#ArialMT-20" x="2360.328125"/>
                    <use xlink:href="#ArialMT-73" x="2388.111328"/>
                    <use xlink:href="#ArialMT-6f" x="2438.111328"/>
                    <use xlink:href="#ArialMT-6c" x="2493.726562"/>
                    <use xlink:href="#ArialMT-76" x="2515.943359"/>
                    <use xlink:href="#ArialMT-65" x="2565.943359"/>
                    <use xlink:href="#ArialMT-72" x="2621.558594"/>
                    <use xlink:href="#ArialMT-73" x="2654.859375"/>
                    <use xlink:href="#ArialMT-20" x="2704.859375"/>
                    <use xlink:href="#ArialMT-77" x="2732.642578"/>
                    <use xlink:href="#ArialMT-69" x="2804.859375"/>
                    <use xlink:href="#ArialMT-74" x="2827.076172"/>
                    <use xlink:href="#ArialMT-68" x="2854.859375"/>
                    <use xlink:href="#ArialMT-20" x="2910.474609"/>
                    <use xlink:href="#ArialMT-55" x="2938.257812"/>
                    <use xlink:href="#ArialMT-6e" x="3010.474609"/>
                    <use xlink:href="#ArialMT-63" x="3066.089844"/>
                    <use xlink:href="#ArialMT-65" x="3116.089844"/>
                    <use xlink:href="#ArialMT-72" x="3171.705078"/>
                    <use xlink:href="#ArialMT-74" x="3205.005859"/>
                    <use xlink:href="#ArialMT-61" x="3232.789062"/>
                    <use xlink:href="#ArialMT-69" x="3288.404297"/>
                    <use xlink:href="#ArialMT-6e" x="3310.621094"/>
                    <use xlink:href="#ArialMT-74" x="3366.236328"/>
                    <use xlink:href="#ArialMT-79" x="3394.019531"/>
                </g>
            </g>
            <g id="legend_1">
                <g id="patch_7">
                    <path d="M 47.64925 80.692375
L 136.93075 80.692375 
Q 138.69075 80.692375 138.69075 78.932375 
L 138.69075 29.28925 
Q 138.69075 27.52925 136.93075 27.52925 
L 47.64925 27.52925 
Q 45.88925 27.52925 45.88925 29.28925 
L 45.88925 78.932375 
Q 45.88925 80.692375 47.64925 80.692375 
z
" style="fill: #ffffff; opacity: 0.8; stroke: #cccccc; stroke-width: 0.8; stroke-linejoin: miter"/>
                </g>
                <g id="text_17">
                    <!-- Method -->
                    <g style="fill: #262626" transform="translate(76.28125 37.92075) scale(0.096 -0.096)">
                        <defs>
                            <path id="ArialMT-4d" d="M 475 0
L 475 4581 
L 1388 4581 
L 2472 1338 
Q 2622 884 2691 659 
Q 2769 909 2934 1394 
L 4031 4581 
L 4847 4581 
L 4847 0 
L 4263 0 
L 4263 3834 
L 2931 0 
L 2384 0 
L 1059 3900 
L 1059 0 
L 475 0 
z
" transform="scale(0.015625)"/>
                        </defs>
                        <use xlink:href="#ArialMT-4d"/>
                        <use xlink:href="#ArialMT-65" x="83.300781"/>
                        <use xlink:href="#ArialMT-74" x="138.916016"/>
                        <use xlink:href="#ArialMT-68" x="166.699219"/>
                        <use xlink:href="#ArialMT-6f" x="222.314453"/>
                        <use xlink:href="#ArialMT-64" x="277.929688"/>
                    </g>
                </g>
                <g id="line2d_20">
                    <path d="M 49.40925 47.447625
L 58.20925 47.447625 
L 67.00925 47.447625 
" style="fill: none; stroke: #1f77b4; stroke-width: 1.2; stroke-linecap: round"/>
                </g>
                <g id="text_18">
                    <!-- ProxTorch CPU -->
                    <g style="fill: #262626" transform="translate(74.04925 50.527625) scale(0.088 -0.088)">
                        <defs>
                            <path id="ArialMT-43" d="M 3763 1606
L 4369 1453 
Q 4178 706 3683 314 
Q 3188 -78 2472 -78 
Q 1731 -78 1267 223 
Q 803 525 561 1097 
Q 319 1669 319 2325 
Q 319 3041 592 3573 
Q 866 4106 1370 4382 
Q 1875 4659 2481 4659 
Q 3169 4659 3637 4309 
Q 4106 3959 4291 3325 
L 3694 3184 
Q 3534 3684 3231 3912 
Q 2928 4141 2469 4141 
Q 1941 4141 1586 3887 
Q 1231 3634 1087 3207 
Q 944 2781 944 2328 
Q 944 1744 1114 1308 
Q 1284 872 1643 656 
Q 2003 441 2422 441 
Q 2931 441 3284 734 
Q 3638 1028 3763 1606 
z
" transform="scale(0.015625)"/>
                        </defs>
                        <use xlink:href="#ArialMT-50"/>
                        <use xlink:href="#ArialMT-72" x="66.699219"/>
                        <use xlink:href="#ArialMT-6f" x="100"/>
                        <use xlink:href="#ArialMT-78" x="155.615234"/>
                        <use xlink:href="#ArialMT-54" x="205.615234"/>
                        <use xlink:href="#ArialMT-6f" x="255.574219"/>
                        <use xlink:href="#ArialMT-72" x="311.189453"/>
                        <use xlink:href="#ArialMT-63" x="344.490234"/>
                        <use xlink:href="#ArialMT-68" x="394.490234"/>
                        <use xlink:href="#ArialMT-20" x="450.105469"/>
                        <use xlink:href="#ArialMT-43" x="477.888672"/>
                        <use xlink:href="#ArialMT-50" x="550.105469"/>
                        <use xlink:href="#ArialMT-55" x="616.804688"/>
                    </g>
                </g>
                <g id="line2d_21">
                    <path d="M 49.40925 59.8955
L 58.20925 59.8955 
L 67.00925 59.8955 
" style="fill: none; stroke: #ff7f0e; stroke-width: 1.2; stroke-linecap: round"/>
                </g>
                <g id="text_19">
                    <!-- Nilearn -->
                    <g style="fill: #262626" transform="translate(74.04925 62.9755) scale(0.088 -0.088)">
                        <defs>
                            <path id="ArialMT-4e" d="M 488 0
L 488 4581 
L 1109 4581 
L 3516 984 
L 3516 4581 
L 4097 4581 
L 4097 0 
L 3475 0 
L 1069 3600 
L 1069 0 
L 488 0 
z
" transform="scale(0.015625)"/>
                        </defs>
                        <use xlink:href="#ArialMT-4e"/>
                        <use xlink:href="#ArialMT-69" x="72.216797"/>
                        <use xlink:href="#ArialMT-6c" x="94.433594"/>
                        <use xlink:href="#ArialMT-65" x="116.650391"/>
                        <use xlink:href="#ArialMT-61" x="172.265625"/>
                        <use xlink:href="#ArialMT-72" x="227.880859"/>
                        <use xlink:href="#ArialMT-6e" x="261.181641"/>
                    </g>
                </g>
                <g id="line2d_22">
                    <path d="M 49.40925 72.343375
L 58.20925 72.343375 
L 67.00925 72.343375 
" style="fill: none; stroke: #2ca02c; stroke-width: 1.2; stroke-linecap: round"/>
                </g>
                <g id="text_20">
                    <!-- ProxTorch GPU -->
                    <g style="fill: #262626" transform="translate(74.04925 75.423375) scale(0.088 -0.088)">
                        <defs>
                            <path id="ArialMT-47" d="M 2638 1797
L 2638 2334 
L 4578 2338 
L 4578 638 
Q 4131 281 3656 101 
Q 3181 -78 2681 -78 
Q 2006 -78 1454 211 
Q 903 500 622 1047 
Q 341 1594 341 2269 
Q 341 2938 620 3517 
Q 900 4097 1425 4378 
Q 1950 4659 2634 4659 
Q 3131 4659 3532 4498 
Q 3934 4338 4162 4050 
Q 4391 3763 4509 3300 
L 3963 3150 
Q 3859 3500 3706 3700 
Q 3553 3900 3268 4020 
Q 2984 4141 2638 4141 
Q 2222 4141 1919 4014 
Q 1616 3888 1430 3681 
Q 1244 3475 1141 3228 
Q 966 2803 966 2306 
Q 966 1694 1177 1281 
Q 1388 869 1791 669 
Q 2194 469 2647 469 
Q 3041 469 3416 620 
Q 3791 772 3984 944 
L 3984 1797 
L 2638 1797 
z
" transform="scale(0.015625)"/>
                        </defs>
                        <use xlink:href="#ArialMT-50"/>
                        <use xlink:href="#ArialMT-72" x="66.699219"/>
                        <use xlink:href="#ArialMT-6f" x="100"/>
                        <use xlink:href="#ArialMT-78" x="155.615234"/>
                        <use xlink:href="#ArialMT-54" x="205.615234"/>
                        <use xlink:href="#ArialMT-6f" x="255.574219"/>
                        <use xlink:href="#ArialMT-72" x="311.189453"/>
                        <use xlink:href="#ArialMT-63" x="344.490234"/>
                        <use xlink:href="#ArialMT-68" x="394.490234"/>
                        <use xlink:href="#ArialMT-20" x="450.105469"/>
                        <use xlink:href="#ArialMT-47" x="477.888672"/>
                        <use xlink:href="#ArialMT-50" x="555.671875"/>
                        <use xlink:href="#ArialMT-55" x="622.371094"/>
                    </g>
                </g>
            </g>
        </g>
    </g>
    <defs>
        <clipPath id="pd5fb6198a5">
            <rect x="41.48925" y="23.12925" width="668.14275" height="370.0815"/>
        </clipPath>
    </defs>
</svg>
